<svg width="128" height="128" viewBox="0 0 128 128" fill="none" xmlns="http://www.w3.org/2000/svg">
  <rect width="128" height="128" rx="28" fill="#0F766E"/>
  <path d="M35 41C41 33 50 28 64 28C78 28 89 33 96 43L83 53C78 47 73 44 64 44C56 44 51 47 51 51C51 56 58 58 70 61C86 65 98 72 98 88C98 104 84 113 65 113C48 113 36 107 28 96L41 86C47 94 54 98 66 98C76 98 82 94 82 88C82 83 76 80 63 77C47 73 35 67 35 52C35 48 35 44 35 41Z" fill="white"/>
  <path d="M29 27H99V38H29V27Z" fill="#99F6E4"/>
</svg>
